{
    "asset" : {
        "generator" : "Khronos glTF Blender I/O v1.0.5",
        "version" : "2.0"
    },
    "scene" : 0,
    "scenes" : [
        {
            "name" : "Scene",
            "nodes" : [
                0
            ]
        }
    ],
    "nodes" : [
        {
            "mesh" : 0,
            "name" : "Gopro MedPoly"
        }
    ],
    "materials" : [
        {
            "doubleSided" : true,
            "name" : "GoproLowPoly",
            "pbrMetallicRoughness" : {
                "baseColorTexture" : {
                    "index" : 0,
                    "texCoord" : 0
                },
                "metallicFactor" : 0,
                "metallicRoughnessTexture" : {
                    "index" : 1,
                    "texCoord" : 0
                }
            }
        }
    ],
    "meshes" : [
        {
            "name" : "Cube.000",
            "primitives" : [
                {
                    "attributes" : {
                        "POSITION" : 0,
                        "NORMAL" : 1,
                        "TEXCOORD_0" : 2
                    },
                    "indices" : 3,
                    "material" : 0
                }
            ]
        }
    ],
    "textures" : [
        {
            "source" : 0
        },
        {
            "source" : 1
        }
    ],
    "images" : [
        {
            "bufferView" : 4,
            "mimeType" : "image/jpeg",
            "name" : "Texture_Gopro_H5S_LowPoly_Albedo_1K"
        },
        {
            "bufferView" : 5,
            "mimeType" : "image/jpeg",
            "name" : "Texture_Gopro_H5S_LowPoly_Roughness_1K"
        }
    ],
    "accessors" : [
        {
            "bufferView" : 0,
            "componentType" : 5126,
            "count" : 4104,
            "max" : [
                0.019191822037100792,
                0.03829145058989525,
                0.01856483519077301
            ],
            "min" : [
                -0.019189655780792236,
                3.2178104447666556e-05,
                -0.01765938103199005
            ],
            "type" : "VEC3"
        },
        {
            "bufferView" : 1,
            "componentType" : 5126,
            "count" : 4104,
            "type" : "VEC3"
        },
        {
            "bufferView" : 2,
            "componentType" : 5126,
            "count" : 4104,
            "type" : "VEC2"
        },
        {
            "bufferView" : 3,
            "componentType" : 5123,
            "count" : 17112,
            "type" : "SCALAR"
        }
    ],
    "bufferViews" : [
        {
            "buffer" : 0,
            "byteLength" : 49248,
            "byteOffset" : 0
        },
        {
            "buffer" : 0,
            "byteLength" : 49248,
            "byteOffset" : 49248
        },
        {
            "buffer" : 0,
            "byteLength" : 32832,
            "byteOffset" : 98496
        },
        {
            "buffer" : 0,
            "byteLength" : 34224,
            "byteOffset" : 131328
        },
        {
            "buffer" : 0,
            "byteLength" : 712334,
            "byteOffset" : 165552
        },
        {
            "buffer" : 0,
            "byteLength" : 42158,
            "byteOffset" : 877888
        }
    ],
    "buffers" : [
        {
            "byteLength" : 920048,
            "uri" : "data:application/octet-stream;base64,"
        }
    ]
}
